<svg width="102" height="103" viewBox="0 0 102 103" fill="none" xmlns="http://www.w3.org/2000/svg">
<rect x="13.9246" y="14.4038" width="23.9035" height="42.8417" fill="white"/>
<rect x="2.30981" width="41.0923" height="9.9103" fill="white"/>
<rect x="2.30981" width="41.0923" height="9.9103" fill="white"/>
<rect x="2.30981" y="27.0779" width="41.0923" height="9.9103" fill="white"/>
<rect x="2.30981" y="59.8208" width="41.0923" height="9.9103" fill="white"/>
<rect x="8.88574" y="33.0317" width="41.0923" height="30.1721" fill="white"/>
<rect x="8.88574" y="6.82275" width="41.0923" height="23.7282" fill="white"/>
<rect width="7.88285" height="69.731" fill="white"/>
<path d="M2.17236 2.688H8.6833V9.19893H2.17236V2.688ZM8.6833 2.688H15.1942V9.19893H8.6833V2.688ZM15.1942 2.688H21.7052V9.19893H15.1942V2.688ZM21.7052 2.688H28.2161V9.19893H21.7052V2.688ZM28.2161 2.688H34.727V9.19893H28.2161V2.688ZM34.727 2.688H41.238V9.19893H34.727V2.688ZM34.727 9.19893H41.238V15.7099H34.727V9.19893ZM28.2161 9.19893H34.727V15.7099H28.2161V9.19893ZM21.7052 9.19893H28.2161V15.7099H21.7052V9.19893ZM15.1942 9.19893H21.7052V15.7099H15.1942V9.19893ZM8.6833 9.19893H15.1942V15.7099H8.6833V9.19893ZM2.17236 9.19893H8.6833V15.7099H2.17236V9.19893ZM41.238 9.19893H47.7489V15.7099H41.238V9.19893ZM41.238 15.7099H47.7489V22.2208H41.238V15.7099ZM41.238 22.2208H47.7489V28.7317H41.238V22.2208ZM34.727 22.2208H41.238V28.7317H34.727V22.2208ZM34.727 15.7099H41.238V22.2208H34.727V15.7099ZM34.727 28.7317H41.238V35.2427H34.727V28.7317ZM28.2161 28.7317H34.727V35.2427H28.2161V28.7317ZM21.7052 28.7317H28.2161V35.2427H21.7052V28.7317ZM15.1942 28.7317H21.7052V35.2427H15.1942V28.7317ZM8.6833 28.7317H15.1942V35.2427H8.6833V28.7317ZM8.6833 22.2208H15.1942V28.7317H8.6833V22.2208ZM8.6833 15.7099H15.1942V22.2208H8.6833V15.7099ZM2.17236 15.7099H8.6833V22.2208H2.17236V15.7099ZM2.17236 22.2208H8.6833V28.7317H2.17236V22.2208ZM2.17236 28.7317H8.6833V35.2427H2.17236V28.7317ZM2.17236 35.2427H8.6833V41.7536H2.17236V35.2427ZM8.6833 35.2427H15.1942V41.7536H8.6833V35.2427ZM15.1942 35.2427H21.7052V41.7536H15.1942V35.2427ZM21.7052 35.2427H28.2161V41.7536H21.7052V35.2427ZM28.2161 35.2427H34.727V41.7536H28.2161V35.2427ZM34.727 35.2427H41.238V41.7536H34.727V35.2427ZM41.238 35.2427H47.7489V41.7536H41.238V35.2427ZM41.238 41.7536H47.7489V48.2646H41.238V41.7536ZM34.727 41.7536H41.238V48.2646H34.727V41.7536ZM34.727 54.7755H41.238V61.2864H34.727V54.7755ZM41.238 54.7755H47.7489V61.2864H41.238V54.7755ZM41.238 48.2646H47.7489V54.7755H41.238V48.2646ZM34.727 48.2646H41.238V54.7755H34.727V48.2646ZM34.727 61.2864H41.238V67.7974H34.727V61.2864ZM28.2161 61.2864H34.727V67.7974H28.2161V61.2864ZM21.7052 61.2864H28.2161V67.7974H21.7052V61.2864ZM15.1942 61.2864H21.7052V67.7974H15.1942V61.2864ZM8.6833 61.2864H15.1942V67.7974H8.6833V61.2864ZM2.17236 61.2864H8.6833V67.7974H2.17236V61.2864ZM2.17236 54.7755H8.6833V61.2864H2.17236V54.7755ZM2.17236 48.2646H8.6833V54.7755H2.17236V48.2646ZM2.17236 41.7536H8.6833V48.2646H2.17236V41.7536ZM8.6833 41.7536H15.1942V48.2646H8.6833V41.7536ZM8.6833 48.2646H15.1942V54.7755H8.6833V48.2646ZM8.6833 54.7755H15.1942V61.2864H8.6833V54.7755ZM15.1942 54.7755H21.7052V61.2864H15.1942V54.7755ZM21.7052 54.7755H28.2161V61.2864H21.7052V54.7755ZM28.2161 54.7755H34.727V61.2864H28.2161V54.7755Z" fill="#AC14E3"/>
<rect x="65.4722" y="45.9827" width="23.9035" height="24.7458" fill="white"/>
<rect x="52.6228" y="33.0317" width="43.0127" height="49.9846" fill="white"/>
<rect x="52.6228" y="33.0317" width="17.0367" height="69.1471" fill="white"/>
<rect x="84.4551" y="40.1235" width="17.2118" height="35.6244" fill="white"/>
<path d="M54.4397 35.3599H60.9506V41.8708H54.4397V35.3599ZM60.9506 35.3599H67.4616V41.8708H60.9506V35.3599ZM67.4616 35.3599H73.9725V41.8708H67.4616V35.3599ZM73.9725 35.3599H80.4834V41.8708H73.9725V35.3599ZM80.4834 35.3599H86.9944V41.8708H80.4834V35.3599ZM86.9944 35.3599H93.5053V41.8708H86.9944V35.3599ZM86.9944 41.8708H93.5053V48.3817H86.9944V41.8708ZM80.4834 41.8708H86.9944V48.3817H80.4834V41.8708ZM73.9725 41.8708H80.4834V48.3817H73.9725V41.8708ZM67.4616 41.8708H73.9725V48.3817H67.4616V41.8708ZM60.9506 41.8708H67.4616V48.3817H60.9506V41.8708ZM54.4397 41.8708H60.9506V48.3817H54.4397V41.8708ZM93.5053 41.8708H100.016V48.3817H93.5053V41.8708ZM86.9944 48.3817H93.5053V54.8927H86.9944V48.3817ZM93.5053 48.3817H100.016V54.8927H93.5053V48.3817ZM93.5053 54.8927H100.016V61.4036H93.5053V54.8927ZM93.5053 61.4036H100.016V67.9146H93.5053V61.4036ZM86.9944 61.4036H93.5053V67.9146H86.9944V61.4036ZM86.9944 54.8927H93.5053V61.4036H86.9944V54.8927ZM86.9944 67.9146H93.5053V74.4255H86.9944V67.9146ZM86.9944 74.4255H93.5053V80.9364H86.9944V74.4255ZM80.4834 74.4255H86.9944V80.9364H80.4834V74.4255ZM80.4834 67.9146H86.9944V74.4255H80.4834V67.9146ZM73.9725 67.9146H80.4834V74.4255H73.9725V67.9146ZM73.9725 74.4255H80.4834V80.9364H73.9725V74.4255ZM67.4616 74.4255H73.9725V80.9364H67.4616V74.4255ZM67.4616 67.9146H73.9725V74.4255H67.4616V67.9146ZM60.9506 67.9146H67.4616V74.4255H60.9506V67.9146ZM54.4397 67.9146H60.9506V74.4255H54.4397V67.9146ZM54.4397 74.4255H60.9506V80.9364H54.4397V74.4255ZM60.9506 74.4255H67.4616V80.9364H60.9506V74.4255ZM54.4397 48.3817H60.9506V54.8927H54.4397V48.3817ZM60.9506 48.3817H67.4616V54.8927H60.9506V48.3817ZM60.9506 54.8927H67.4616V61.4036H60.9506V54.8927ZM60.9506 61.4036H67.4616V67.9146H60.9506V61.4036ZM54.4397 54.8927H60.9506V61.4036H54.4397V54.8927ZM54.4397 61.4036H60.9506V67.9146H54.4397V61.4036ZM54.4397 80.9364H60.9506V87.4474H54.4397V80.9364ZM60.9506 80.9364H67.4616V87.4474H60.9506V80.9364ZM60.9506 87.4474H67.4616V93.9583H60.9506V87.4474ZM60.9506 93.9583H67.4616V100.469H60.9506V93.9583ZM54.4397 93.9583H60.9506V100.469H54.4397V93.9583ZM54.4397 87.4474H60.9506V93.9583H54.4397V87.4474ZM93.5053 67.9146H100.016V74.4255H93.5053V67.9146Z" fill="#AC14E3"/>
</svg>
